<?xml version="1.0" encoding="utf-8"?>
<!-- Generator: Adobe Illustrator 16.0.0, SVG Export Plug-In . SVG Version: 6.00 Build 0)  -->
<!DOCTYPE svg PUBLIC "-//W3C//DTD SVG 1.1//EN" "http://www.w3.org/Graphics/SVG/1.1/DTD/svg11.dtd">
<svg version="1.1" xmlns="http://www.w3.org/2000/svg" xmlns:xlink="http://www.w3.org/1999/xlink" x="0px" y="0px"
	 width="151.009px" height="60px" viewBox="0 0 151.009 60" enable-background="new 0 0 151.009 60" xml:space="preserve">
<g id="background">
</g>
<g id="bgcover">
</g>
<g id="vector01">
</g>
<g id="Layer_1">
</g>
<g id="text">
	<g>
		<path opacity="0.37" fill="#E9EBEC" d="M105.636,30.862l-0.47-0.101c-0.093-0.022-0.159-0.113-0.147-0.208
			c0.637-5.289-1.708-11.053-2.148-12.074c-0.037-0.085,0.006-0.174,0.101-0.192l2.245-0.476c0.094-0.02,0.092-0.04-0.003-0.045
			l-0.939-0.052c-0.095-0.006-0.136-0.08-0.093-0.163l0.202-0.385c0.044-0.086,0.002-0.144-0.091-0.13l-1.895,0.243
			c-0.094,0.014-0.202-0.048-0.243-0.136c-1.858-4.109-5.816-8.143-6.563-8.884c-0.069-0.069-0.054-0.156,0.031-0.199l0.238-0.119
			c0.086-0.043,0.138-0.153,0.117-0.246l-0.096-0.426c-0.022-0.093-0.117-0.16-0.211-0.151l-1.3,0.126
			c-0.094,0.009-0.171-0.042-0.171-0.113s0.077-0.14,0.171-0.151l0.825-0.101c0.095-0.013,0.192-0.096,0.218-0.189l0.094-0.343
			c0.026-0.091-0.031-0.172-0.126-0.181l-0.159-0.013c-0.096-0.009-0.208-0.084-0.252-0.17l-0.087-0.167
			c-0.044-0.085-0.152-0.13-0.243-0.099l-1.476,0.479c-0.09,0.032-0.224,0.007-0.299-0.053c-3.375-2.721-6.716-3.705-7.491-3.907
			c-0.093-0.024-0.182-0.118-0.199-0.212L84.839,0.12c-0.016-0.093-0.103-0.143-0.191-0.109l-3.4,1.261
			c-0.089,0.033-0.24,0.049-0.334,0.033C73.682,0.2,68.5,1.571,66.603,2.213c-0.091,0.033-0.192-0.014-0.228-0.103l-0.591-1.495
			c-0.035-0.088-0.139-0.14-0.229-0.109c-1.468,0.504-1.476,1.906-1.432,2.396c0.009,0.095,0.034,0.194,0.046,0.22
			c0.012,0.028-0.047,0.083-0.135,0.123c-7.778,3.703-12.533,12.304-13.194,13.559c-0.044,0.084-0.136,0.207-0.205,0.272
			l-1.252,1.199c-0.069,0.066-0.06,0.076,0.018,0.023l0.826-0.555c0.079-0.054,0.109-0.027,0.067,0.058
			c-3.878,8.043-2.603,17.677-2.392,19.068c0.014,0.094,0.076,0.232,0.129,0.311c0.805,1.165,1.475,3.632,1.646,4.295
			c0.025,0.091,0.069,0.242,0.102,0.33c0.069,0.188,0.144,0.376,0.223,0.563c0.037,0.088,0.002,0.203-0.076,0.258
			c-0.579,0.399-1.088,0.763-1.498,1.072c-0.077,0.056-0.073,0.063,0.009,0.012l1.542-0.961c0.081-0.051,0.156-0.072,0.167-0.046
			s-0.04,0.096-0.114,0.154c-0.939,0.751-2.453,1.978-3.433,2.856c-0.072,0.064-0.069,0.067,0.006,0.009
			c0.431-0.343,1.845-1.465,3.495-2.713c0.077-0.058,0.17-0.034,0.211,0.052c2.678,5.587,8.917,10.411,9.925,11.168
			c0.076,0.058,0.07,0.138-0.013,0.186c-1.187,0.683-2.78,2.596-3.205,3.122c-0.061,0.072-0.058,0.076,0.011,0.008
			c0.675-0.651,3.066-2.432,3.669-2.879c0.077-0.058,0.203-0.059,0.282-0.006c2.57,1.725,7.073,3.423,7.983,3.758
			c0.09,0.031,0.099,0.102,0.021,0.157l-1.102,0.779c-0.079,0.056-0.083,0.15-0.011,0.214l0.431,0.377
			c0.073,0.063,0.196,0.072,0.277,0.022l1.816-1.14c0.081-0.05,0.222-0.076,0.315-0.057c6.075,1.26,12.596-0.266,12.596-0.266
			c1.357-0.375,4.643-1.723,4.643-1.723c0.462-0.233,0.451-0.445,0.356-0.584c-0.052-0.08-0.117-0.201-0.114-0.295l0.009-0.213
			c0.005-0.097,0.046-0.104,0.091-0.021l0.247,0.455c0.045,0.084,0.16,0.141,0.253,0.125l0.482-0.076
			c0.093-0.014,0.225,0.029,0.293,0.095l0.252,0.252c0.069,0.068,0.187,0.077,0.264,0.02c1.039-0.76,7.581-5.651,10.271-9.83
			c0.052-0.081,0.043-0.087-0.02-0.017c-0.542,0.616-3.031,3.335-7.549,6.885c-0.074,0.06-0.09,0.045-0.032-0.031
			c0.049-0.068,0.115-0.157,0.197-0.269c0.056-0.077,0.157-0.194,0.223-0.263c1.722-1.79,4.021-5.554,4.5-6.346
			c0.049-0.082,0.048-0.083-0.013-0.009c-0.144,0.175-0.389,0.425-0.698,0.72c-0.069,0.066-0.086,0.053-0.037-0.028
			c0.257-0.433,0.5-0.857,0.721-1.269c0.046-0.083,0.158-0.167,0.251-0.186c1.6-0.336,3.344-0.861,3.344-0.861
			c2.106-0.809,1.159-1.836,0.771-2.166c-0.071-0.062-0.211-0.093-0.305-0.073c-0.817,0.168-1.832,0.476-2.95,0.871
			c-0.091,0.031-0.144-0.019-0.12-0.109c0.51-1.995,1.55-6.34,1.77-9.4c0.007-0.095,0.084-0.197,0.175-0.228
			c0.576-0.198,1.026-0.341,1.295-0.403l2.373-0.677c0.092-0.027,0.156,0.028,0.141,0.123c-0.229,1.595-0.554,2.687-0.683,3.082
			c-0.03,0.088-0.001,0.106,0.058,0.031c0.743-0.92,0.97-2.546,1.026-3.078c0.01-0.094,0.093-0.187,0.186-0.206l0.382-0.075
			c0.094-0.02,0.173-0.11,0.174-0.208l0.022-0.777c0-0.095-0.038-0.234-0.091-0.31c-0.052-0.075-0.018-0.15,0.077-0.168l0.035-0.007
			c0.094-0.019,0.182-0.107,0.199-0.199C105.792,30.971,105.73,30.881,105.636,30.862z M94.146,8.513
			c0.085-0.043,0.212-0.029,0.286,0.033c3.751,3.193,6.165,7.157,7.059,8.768c0.045,0.084,0.013,0.188-0.075,0.226
			c-0.315,0.126-0.788,0.229-1.172-0.063c-0.075-0.058-0.203-0.099-0.295-0.076c-0.346,0.088-1.203,0.306-2.351,0.631
			c-0.093,0.026-0.201-0.023-0.243-0.108c-0.859-1.716-3.149-5.951-6.038-8.546c-0.071-0.064-0.059-0.149,0.027-0.19l0.567-0.271
			c0.086-0.04,0.234-0.066,0.328-0.057L93.1,8.94c0.095,0.009,0.241-0.018,0.327-0.062L94.146,8.513z M88.215,19.069
			c0.033,0.087,0.022,0.093-0.028,0.011c-0.172-0.29-0.587-0.954-1.101-1.588c-0.06-0.073-0.07-0.066-0.022,0.016
			c0.194,0.336,0.652,1.159,0.777,1.652c0.023,0.094-0.002,0.101-0.045,0.016c-0.27-0.546-1.211-2.379-2.021-3.024
			c-0.075-0.061-0.104-0.034-0.059,0.051c0.315,0.585,1.491,2.765,2.631,4.879c0.044,0.084,0.009,0.18-0.08,0.215
			c-2.242,0.867-7.924,3.116-11.951,5.129c-0.085,0.042-0.185,0.004-0.22-0.084l-3.785-9.283c-0.035-0.088,0.006-0.194,0.091-0.234
			c3.789-1.778,8.154-3.748,10.723-4.649c0.09-0.03,0.225-0.009,0.299,0.05C84.946,13.436,86.849,15.541,88.215,19.069z
			 M84.425,10.896l4.043-1.763c0.088-0.039,0.216-0.018,0.288,0.046c0.038,0.034,0.078,0.07,0.12,0.108
			c0.07,0.065,0.056,0.146-0.032,0.182l-4.171,1.688c-0.089,0.035-0.213,0.008-0.278-0.063c-0.003-0.001-0.005-0.005-0.008-0.006
			C84.321,11.019,84.337,10.932,84.425,10.896z M81.381,39.73c0.042,0.085,0.009,0.191-0.074,0.239
			c-2.111,1.182-6.087,3.415-9.32,5.282c-0.083,0.048-0.202,0.028-0.265-0.043c-2.83-3.196-4.506-6.194-4.88-6.894
			c-0.046-0.085-0.063-0.078-0.038,0.015c0.62,2.22,2.692,5.097,4.384,7.188c0.061,0.074,0.049,0.169-0.025,0.211
			c-0.074,0.044-0.185,0.019-0.247-0.053c-3.033-3.56-6.061-8.694-6.061-8.694c-0.365-0.565-0.696-1.192-0.996-1.863
			c-0.039-0.086-0.001-0.193,0.083-0.238c2.79-1.463,9.47-4.961,11.817-6.094c0.086-0.042,0.189-0.007,0.231,0.081l1.138,2.375
			L81.381,39.73z M79.786,35.745l1.782,3.882c0.039,0.086,0.036,0.177-0.008,0.202c-0.045,0.024-0.109-0.028-0.147-0.116
			l-1.634-3.966C79.743,35.66,79.746,35.658,79.786,35.745z M72.333,45.884c-0.002-0.003-0.003-0.004-0.004-0.008
			c-0.066-0.069-0.049-0.16,0.037-0.201l3.062-1.509c0.086-0.042,0.09-0.036,0.007,0.014c-0.378,0.229-1.45,0.881-2.837,1.738
			C72.517,45.968,72.397,45.953,72.333,45.884z M73.474,48.166c0.063,0.068,0.054,0.08-0.022,0.022
			c-0.43-0.324-0.88-0.732-1.339-1.197c-0.066-0.068-0.074-0.153-0.015-0.189c0.058-0.037,0.155-0.007,0.218,0.063
			C72.857,47.495,73.278,47.955,73.474,48.166z M72.353,45.656c-0.083,0.047-0.196,0.037-0.252-0.023
			c-0.056-0.062-0.032-0.148,0.051-0.192l8.167-4.319c0.084-0.045,0.086-0.041,0.002,0.004L72.353,45.656z M71.768,46.433
			c-0.064,0.04-0.17,0.017-0.233-0.054c-0.086-0.093-0.171-0.189-0.256-0.286c-0.063-0.07-0.054-0.162,0.022-0.202
			c0.075-0.039,0.185-0.012,0.245,0.062c0.078,0.094,0.154,0.185,0.229,0.274C71.835,46.3,71.832,46.392,71.768,46.433z
			 M76.375,27.029c-0.035-0.086,0.006-0.188,0.094-0.227c1.763-0.795,3.469-1.499,4.651-1.829c0.091-0.027,0.097-0.015,0.01,0.023
			c-0.518,0.236-2.266,1.036-4.536,2.111C76.508,27.149,76.409,27.114,76.375,27.029z M72.25,16.453
			c-0.084,0.044-0.182,0.008-0.22-0.081l-0.004-0.014c-0.036-0.087,0.004-0.191,0.09-0.236c2.54-1.274,4.917-2.367,6.55-2.912
			c0.091-0.029,0.095-0.018,0.008,0.021C78.01,13.558,75.294,14.886,72.25,16.453z M80.661,10.718
			c-3.337,1.361-6.705,2.873-9.013,4.257c-0.082,0.052-0.178,0.02-0.213-0.068l-0.098-0.237l-2.351-5.947
			c-0.035-0.09,0.007-0.193,0.094-0.234l5.183-2.464c0.086-0.043,0.225-0.041,0.309,0.005c1.857,0.959,3.939,2.388,6.126,4.504
			C80.766,10.601,80.75,10.683,80.661,10.718z M70.021,17.386c0.004,0.011,0.009,0.018,0.014,0.025
			c0.046,0.084,0.016,0.188-0.068,0.232c-1.678,0.887-3.327,1.786-4.675,2.583c-0.083,0.047-0.079,0.053,0.006,0.012
			c0.537-0.265,2.415-1.187,4.819-2.334c0.086-0.042,0.196-0.009,0.244,0.075c0.852,1.443,1.712,2.665,2.001,3.066
			c0.056,0.077,0.133,0.21,0.174,0.297l2.484,5.496c0,0,0.021,0.043,0.045,0.097c0.025,0.051-0.023,0.128-0.109,0.17
			c-1.311,0.656-4.349,2.212-5.882,3.29c-0.077,0.056-0.072,0.066,0.012,0.022c0.649-0.339,3.258-1.692,6.023-2.989
			c0.087-0.04,0.19-0.004,0.231,0.083l0.001,0.001c0.042,0.087,0.005,0.19-0.081,0.232c-3.867,1.853-8.709,4.273-11.727,6.13
			c-0.081,0.05-0.174,0.018-0.208-0.072c-1.382-3.795-1.95-8.506-2.184-11.593c-0.007-0.095,0.056-0.211,0.14-0.258
			c2.055-1.164,5.266-2.95,8.5-4.637C69.867,17.272,69.974,17.304,70.021,17.386z M61.837,34.743c0.039,0.088,0.004,0.2-0.078,0.25
			c-1.09,0.68-3.131,1.956-5.342,3.366c-0.08,0.051-0.17,0.021-0.201-0.068c-1.729-5.111-1.904-9.768-1.904-9.768
			c0.014-0.67,0.048-1.329,0.098-1.976c0.007-0.093,0.077-0.214,0.157-0.268l4.261-2.9c0.078-0.052,0.151-0.018,0.164,0.076
			C59.614,28.602,60.789,32.297,61.837,34.743z M60.808,36.31c-0.227,0.138-0.698,0.427-1.306,0.801
			c-0.082,0.05-0.084,0.048-0.004-0.006c0.508-0.344,0.959-0.625,1.303-0.807C60.885,36.253,60.889,36.261,60.808,36.31z
			 M56.501,38.599c0.825-0.513,1.861-1.154,2.359-1.428c0.083-0.046,0.092-0.034,0.016,0.024c-0.296,0.226-1.038,0.794-1.902,1.479
			c-0.075,0.059-0.201,0.149-0.281,0.2c-0.025,0.015-0.05,0.031-0.075,0.046c-0.083,0.051-0.172,0.022-0.205-0.068
			C56.38,38.765,56.42,38.651,56.501,38.599z M56.73,39.222c2.044-1.2,4.367-2.585,5.45-3.312c0.08-0.054,0.177-0.029,0.22,0.058
			c0.66,1.343,1.205,2.133,1.424,2.433c0.058,0.077,0.143,0.205,0.188,0.288c1.624,2.979,3.704,5.568,5.728,7.679
			c0.065,0.069,0.053,0.165-0.03,0.213c-0.727,0.43-1.351,0.807-1.821,1.101c-0.08,0.051-0.077,0.057,0.008,0.012l1.914-1.013
			c0.084-0.044,0.207-0.026,0.274,0.042c0.115,0.116,0.229,0.234,0.346,0.347c0.066,0.069,0.057,0.164-0.025,0.215
			c-1.58,0.993-3.287,2.085-4.758,3.067c-0.08,0.052-0.21,0.056-0.291,0.004c-1.077-0.675-1.871-1.374-2.167-1.647
			c-0.07-0.064-0.188-0.165-0.264-0.223c-3.037-2.303-5.007-5.686-6.284-9.016C56.609,39.381,56.647,39.269,56.73,39.222z
			 M66.274,50.708c1.332-0.94,2.915-2.029,4.5-3.063c0.081-0.051,0.201-0.04,0.27,0.026c3.26,3.134,6.056,4.905,6.056,4.905
			c0.358,0.202,0.719,0.393,1.078,0.576c0.085,0.042,0.087,0.116,0.003,0.164c-0.592,0.339-1.171,0.675-1.723,0.998
			c-0.082,0.047-0.225,0.068-0.318,0.045c-2.965-0.744-5.345-2.016-5.952-2.358c-0.083-0.045-0.227-0.085-0.323-0.085
			c-1.267-0.024-2.509-0.47-3.58-1.026C66.2,50.845,66.195,50.765,66.274,50.708z M72.914,46.495
			c-0.066-0.068-0.054-0.167,0.029-0.216c1.355-0.822,2.625-1.522,3.636-1.958c0,0,2.732-1.342,5.514-2.703
			c0.087-0.042,0.175-0.001,0.199,0.091l0.079,0.315c0.023,0.092,0.078,0.235,0.122,0.32l2.094,4.038
			c0.043,0.085,0.035,0.09-0.018,0.011l-1.537-2.246c-0.054-0.079-0.063-0.075-0.02,0.01l2.255,4.44
			c0.044,0.085,0.095,0.228,0.117,0.321l0.08,0.369c0.022,0.094-0.034,0.199-0.122,0.237c-1.192,0.513-2.948,1.434-4.788,2.455
			c-0.083,0.045-0.22,0.048-0.306,0.005C77.367,50.547,74.911,48.538,72.914,46.495z M82.555,41.583
			c-0.046-0.084-0.013-0.187,0.073-0.229c2.078-1.016,4.089-1.994,4.911-2.387c0,0,2.306-0.929,5.087-2.023
			c0.09-0.037,0.169,0.012,0.176,0.108c0.081,0.987,0.122,1.979,0.111,2.95c-0.001,0.096,0.014,0.096,0.034,0.005
			c0.091-0.434,0.323-1.634,0.381-2.771c0.004-0.095,0.01-0.095,0.018,0c0.111,2.024,0.102,5.514-0.856,8.848
			c-0.026,0.093-0.119,0.198-0.208,0.236c-2.471,1.107-4.634,2.156-5.597,2.627c-0.085,0.042-0.191,0.009-0.236-0.076L82.555,41.583
			z M92.418,35.034c-1.99,0.715-7.025,2.583-9.63,4.106c0,0-0.29,0.162-0.789,0.44c-0.083,0.048-0.181,0.015-0.221-0.073
			L76.97,28.43c-0.037-0.088,0.002-0.189,0.09-0.228c2.264-0.976,9.128-3.927,12.173-5.108c0.089-0.035,0.198,0.006,0.243,0.091
			c0.229,0.425,0.441,0.818,0.623,1.159c0.045,0.084,0.106,0.226,0.136,0.315c0.29,0.888,1.662,5.253,2.322,10.146
			C92.571,34.901,92.508,35.003,92.418,35.034z M90.213,20.511c-0.089,0.036-0.191-0.006-0.229-0.094
			c-0.991-2.256-2.808-6.008-4.926-8.569c-0.061-0.075-0.038-0.16,0.052-0.193c0.72-0.267,3.628-1.342,4.35-1.608
			c0.089-0.034,0.218-0.008,0.286,0.059c1.265,1.227,3.108,3.166,4.544,5.325c0.052,0.08,0.06,0.075,0.016-0.01
			c-0.289-0.564-1.348-2.55-2.585-3.857c-0.065-0.069-0.065-0.069,0.003-0.003c1.034,1.009,3.432,3.525,4.99,6.546
			c0.044,0.086,0.005,0.178-0.086,0.205C94.753,18.862,92.388,19.622,90.213,20.511z M93.15,7.528
			c0.011,0.008,0.022,0.018,0.035,0.025c0.076,0.057,0.065,0.132-0.023,0.168l-2.417,0.978c-0.088,0.038-0.222,0.019-0.299-0.038
			c-0.04-0.029-0.08-0.059-0.121-0.088c-0.076-0.056-0.067-0.128,0.022-0.16l2.501-0.927C92.939,7.454,93.074,7.472,93.15,7.528z
			 M81.576,3.291l1.13-0.379c0.09-0.031,0.24-0.037,0.332-0.015c4.131,1.001,7.236,2.737,8.601,3.594
			c0.082,0.052,0.074,0.119-0.017,0.148c-0.486,0.165-1.35,0.463-2.461,0.857c-0.091,0.033-0.214,0-0.278-0.07
			c-0.849-0.94-3.094-2.981-7.301-4.039C81.487,3.364,81.485,3.321,81.576,3.291z M76.711,4.923l2.426-0.815
			c0.091-0.028,0.24-0.034,0.331-0.009c2.452,0.667,5.202,1.847,7.872,3.899c0.075,0.058,0.063,0.131-0.027,0.165
			c-1.25,0.456-2.666,0.985-4.146,1.56c-0.089,0.035-0.22,0.011-0.29-0.054c-1.036-0.944-3.308-2.891-6.18-4.603
			C76.613,5.016,76.62,4.952,76.711,4.923z M73.355,3.279c0.682-0.002,1.513,0.03,2.45,0.131c0.094,0.009,0.101,0.05,0.013,0.089
			l-0.916,0.424c-0.088,0.039-0.228,0.037-0.313-0.005c-0.409-0.201-0.828-0.391-1.249-0.572C73.254,3.311,73.26,3.279,73.355,3.279
			z M67.436,4.324c0.112-0.053,0.228-0.104,0.347-0.154c0.087-0.038,0.237-0.064,0.332-0.057c0.963,0.055,2.393,0.264,4.141,0.896
			c0.09,0.032,0.092,0.092,0.005,0.133L69.1,6.599l-0.64,0.322c-0.085,0.042-0.183,0.004-0.217-0.083l-0.9-2.278
			C67.308,4.471,67.349,4.365,67.436,4.324z M63.024,9.535c0.688-1.734,1.41-3.105,1.929-4c0.048-0.083,0.109-0.076,0.137,0.015
			c0.327,1.084,0.48,1.98,0.553,2.611c0.011,0.097-0.05,0.208-0.137,0.251l-2.391,1.207C63.03,9.662,62.989,9.624,63.024,9.535z
			 M62.308,11.541c0.028-0.09,0.124-0.193,0.212-0.23l3.628-1.55c0.088-0.035,0.214-0.013,0.279,0.06
			c0.933,1.003,1.637,2.482,1.853,2.963c0.039,0.09,0.069,0.236,0.078,0.332c0.061,0.843,0.464,1.917,0.996,3.006
			c0.042,0.086,0.009,0.192-0.076,0.237c-1.708,0.935-4.823,2.676-8.06,4.673c-0.081,0.048-0.15,0.013-0.155-0.082
			c-0.07-1.241-0.078-2.008-0.078-2.008C61.084,16.195,61.624,13.681,62.308,11.541z M58.901,11.637
			c0.489-0.885,0.944-1.625,1.328-2.206c0.052-0.08,0.151-0.196,0.222-0.262c0.021-0.021,0.042-0.042,0.063-0.062
			c0.069-0.065,0.099-0.045,0.066,0.044c-0.238,0.648-0.446,1.291-0.629,1.921c-0.027,0.093-0.118,0.201-0.203,0.245l-0.777,0.393
			C58.887,11.753,58.856,11.72,58.901,11.637z M57.846,13.702c0.041-0.086,0.144-0.192,0.23-0.234l1.284-0.632
			c0.085-0.042,0.138,0,0.117,0.093c-0.881,3.938-0.803,7.019-0.803,7.019c0.051,0.826,0.116,1.621,0.194,2.384
			c0.009,0.097-0.048,0.215-0.129,0.267c-1.449,0.945-2.855,1.911-4.1,2.848c-0.076,0.058-0.129,0.029-0.12-0.066
			C55.044,20.645,56.447,16.664,57.846,13.702z M50.344,23.962c0.025-0.092,0.035-0.088,0.021,0.006
			c-0.303,2.021-0.034,3.908,0.062,4.472c0.016,0.093,0.035,0.093,0.042-0.002c0.436-6.442,3.395-12.077,3.934-13.058
			c0.046-0.083,0.099-0.171,0.121-0.194c0.021-0.024,0.013,0.028-0.02,0.118c-1.696,4.854-2.002,10.123-2.057,11.74
			c-0.003,0.095-0.065,0.222-0.137,0.283l-2.663,2.219c-0.073,0.062-0.13,0.034-0.125-0.062
			C49.65,26.616,50.181,24.544,50.344,23.962z M51.923,41.277c-0.079,0.052-0.177,0.026-0.216-0.06
			c-1.884-4.089-2.297-8.152-2.202-11.323c0.002-0.097,0.07-0.219,0.149-0.271l2.621-1.784c0.079-0.053,0.137-0.021,0.129,0.075
			c-0.383,4.834,1.487,9.649,2.248,11.377c0.039,0.087,0.005,0.199-0.075,0.25c-0.608,0.393-1.211,0.786-1.796,1.171
			c-0.08,0.052-0.181,0.027-0.225-0.059c-0.845-1.641-1.322-2.877-1.478-3.305c-0.033-0.09-0.047-0.086-0.03,0.007
			c0.162,0.901,0.599,2.377,1.001,3.642c0.029,0.089-0.013,0.205-0.091,0.258C51.947,41.262,51.936,41.27,51.923,41.277z
			 M52.752,43.222c-0.274-0.468-0.527-0.938-0.76-1.407c-0.042-0.085-0.014-0.199,0.063-0.256l0.002,0
			c0.077-0.058,0.164-0.027,0.194,0.062c0.236,0.723,0.437,1.314,0.531,1.587C52.814,43.297,52.8,43.303,52.752,43.222z
			 M52.878,41.258c-0.011-0.018-0.021-0.038-0.031-0.058c-0.046-0.084-0.018-0.197,0.059-0.252c0.626-0.443,1.228-0.853,1.766-1.199
			c0.08-0.051,0.179-0.025,0.218,0.06c0.047,0.099,0.074,0.151,0.074,0.151c0.003,0.006,0.004,0.009,0.006,0.015
			c0.005,0.007-0.058,0.057-0.136,0.109c-0.704,0.469-1.317,0.896-1.738,1.219C53.02,41.363,52.922,41.342,52.878,41.258z
			 M53.125,41.71c-0.027-0.05-0.056-0.1-0.082-0.149c-0.045-0.083-0.018-0.189,0.066-0.237c0.286-0.162,0.956-0.549,1.817-1.049
			c0.082-0.048,0.15-0.085,0.152-0.082c0.002,0.002-0.058,0.057-0.13,0.117c-0.647,0.541-1.23,1.045-1.617,1.429
			C53.263,41.805,53.172,41.792,53.125,41.71z M62.669,52.253c-4.502-2.871-7.535-7.021-9.375-10.242
			c-0.047-0.082-0.024-0.198,0.05-0.258c0.261-0.21,0.878-0.705,1.665-1.318c0.076-0.059,0.171-0.036,0.215,0.048
			c3.039,6.015,7.308,9.648,8.785,10.785c0.076,0.059,0.074,0.149-0.003,0.206c-0.396,0.277-0.75,0.537-1.053,0.767
			C62.877,52.3,62.751,52.305,62.669,52.253z M73.468,56.081c-0.219,0.132-0.415,0.248-0.58,0.348
			c-0.082,0.049-0.224,0.07-0.316,0.045l-1.933-0.499c-0.092-0.026-0.244-0.028-0.338-0.015c-1.375,0.213-2.235-0.364-2.541-0.623
			c-0.072-0.061-0.053-0.09,0.035-0.057c1.016,0.386,1.592,0.488,1.854,0.515c0.094,0.008,0.1-0.019,0.009-0.049
			c-2.065-0.721-5.338-2.534-5.338-2.534c-0.241-0.127-0.478-0.256-0.71-0.39c-0.084-0.046-0.088-0.131-0.011-0.188
			c0.276-0.202,0.619-0.452,1.013-0.737c0.077-0.055,0.205-0.059,0.287-0.008c3.216,2.05,6.204,3.298,8.553,4.051
			C73.542,55.969,73.55,56.032,73.468,56.081z M78.369,57.108c-1.719,0.139-3.387-0.102-4.338-0.286
			c-0.094-0.019-0.117-0.092-0.05-0.16c0.105-0.105,0.221-0.208,0.341-0.309c0.074-0.063,0.208-0.088,0.302-0.063
			c1.889,0.529,3.208,0.708,3.662,0.758c0.094,0.011,0.19,0.025,0.214,0.031C78.522,57.087,78.463,57.101,78.369,57.108z
			 M81.739,54.823c-1.439,0.172-2.9,0.07-4.28-0.179c-0.095-0.018-0.104-0.069-0.02-0.116c0.376-0.206,0.929-0.487,1.581-0.808
			c0.086-0.042,0.227-0.043,0.312-0.002c0.826,0.382,1.637,0.721,2.416,1.021C81.839,54.773,81.833,54.811,81.739,54.823z
			 M87.229,54.008c-2.001-0.178-3.871-0.677-5.603-1.393c-0.089-0.037-0.09-0.1-0.004-0.141c1.472-0.692,2.968-1.38,3.967-1.838
			c0.086-0.04,0.17-0.012,0.188,0.064c0.016,0.075,0.075,0.198,0.13,0.274l0.771,1.06c0.058,0.077,0.097,0.217,0.09,0.312
			l-0.02,0.282c-0.005,0.095,0.025,0.24,0.071,0.323l0.498,0.918C87.364,53.955,87.324,54.017,87.229,54.008z M90.895,48.329
			l-0.551,2.872c-0.019,0.093,0.021,0.227,0.059,0.314c0.257,0.609-0.74,1.467-1.33,1.906c-0.076,0.058-0.176,0.033-0.22-0.05
			l-1.759-3.29c-0.044-0.085-0.015-0.194,0.066-0.242c0.732-0.422,2.125-1.022,3.608-1.617
			C90.855,48.187,90.913,48.233,90.895,48.329z M96.73,46.242c-0.532,0.884-1.389,2.188-2.551,3.583
			c-0.061,0.073-0.17,0.184-0.242,0.245c-0.546,0.466-0.995,0.842-1.207,1.02c-0.074,0.062-0.133,0.188-0.133,0.285v0.012
			c0,0.096-0.055,0.228-0.122,0.295c-0.11,0.109-0.223,0.218-0.337,0.325c-0.07,0.066-0.19,0.165-0.27,0.217
			c-0.191,0.124-0.386,0.23-0.542,0.311c-0.085,0.042-0.127,0.005-0.094-0.086c0.608-1.629,1.102-3.711,1.336-4.777
			c0.021-0.093,0.109-0.195,0.197-0.23c1.518-0.579,2.838-1.058,3.288-1.219c0.09-0.033,0.242-0.066,0.336-0.074
			c0.083-0.007,0.168-0.018,0.257-0.028C96.742,46.105,96.778,46.161,96.73,46.242z M97.942,43.832
			c-0.036,0.087-0.137,0.187-0.227,0.22c-1.474,0.558-3.063,1.223-4.578,1.889c-0.089,0.04-0.144-0.004-0.127-0.098
			c0.338-1.744,1.154-6.267,1.186-9.342c0.002-0.095,0.074-0.201,0.162-0.235c1.916-0.746,3.876-1.496,5.353-2.027
			c0.09-0.031,0.158,0.021,0.152,0.115C99.723,36.449,99.287,40.472,97.942,43.832z M99.771,32.179
			c-2.03,0.604-4.218,1.334-5.605,2.025c-0.085,0.044-0.162,0.003-0.173-0.092c-0.172-1.561-1.101-9.185-2.97-11.504
			c-0.06-0.075-0.04-0.158,0.05-0.191l6.321-2.314c0.09-0.032,0.188,0.013,0.219,0.105c0.132,0.395,0.243,0.794,0.331,1.197
			c0.021,0.093,0.06,0.242,0.092,0.333c0.309,0.935,1.824,5.719,1.897,10.219C99.936,32.052,99.863,32.151,99.771,32.179z
			 M104.61,30.688c-0.004,0.098-0.084,0.193-0.176,0.217c-0.634,0.157-2.14,0.542-3.867,1.041c-0.092,0.026-0.171-0.029-0.177-0.125
			c-0.145-2.7-0.614-9.072-1.853-11.925c-0.04-0.085,0.002-0.18,0.094-0.208l3.344-1.055c0.09-0.028,0.199,0.018,0.24,0.104
			C104.357,23.279,104.762,27.521,104.61,30.688z"/>
		<g>
			<path fill="#FFFFFF" d="M0.19,36.612v-2.223h9.418c0.588,0,1.04-0.15,1.357-0.455c0.317-0.302,0.475-0.705,0.475-1.207
				c0-0.559-0.158-0.973-0.475-1.242c-0.317-0.269-0.769-0.401-1.357-0.401H3.837c-0.588,0-1.121-0.091-1.599-0.271
				C1.76,30.63,1.356,30.38,1.028,30.059c-0.329-0.322-0.582-0.703-0.76-1.146C0.089,28.47,0,27.985,0,27.46
				c0-0.514,0.083-0.988,0.25-1.426c0.167-0.437,0.415-0.813,0.743-1.127c0.329-0.316,0.734-0.563,1.218-0.745
				c0.484-0.18,1.037-0.271,1.66-0.271h9.021v2.222H3.872c-0.519,0-0.914,0.138-1.185,0.412c-0.27,0.273-0.405,0.656-0.405,1.146
				c0,0.489,0.141,0.869,0.422,1.136c0.282,0.269,0.665,0.403,1.148,0.403h5.746c1.289,0,2.26,0.304,2.917,0.91
				c0.655,0.606,0.983,1.528,0.983,2.765c0,0.536-0.08,1.032-0.24,1.486c-0.159,0.455-0.399,0.849-0.72,1.181
				c-0.319,0.333-0.724,0.594-1.211,0.779c-0.488,0.187-1.061,0.28-1.717,0.28H0.19z"/>
			<path fill="#FFFFFF" d="M15.398,36.612V23.891h11.234v2.222h-9.039v8.276h9.056v2.223H15.398z M19.183,31.083V29.21h6.964v1.873
				H19.183z"/>
			<path fill="#FFFFFF" d="M40.181,36.612L37,33.078h-4.7v-1.961h5.236c0.795,0,1.394-0.215,1.797-0.646
				c0.404-0.433,0.605-1.068,0.605-1.909c0-0.839-0.21-1.457-0.63-1.854s-1.009-0.596-1.768-0.596H30.71v10.499h-2.195V23.891h9.021
				c0.715,0,1.354,0.109,1.917,0.323c0.565,0.216,1.043,0.525,1.435,0.928c0.392,0.402,0.692,0.89,0.898,1.462
				c0.208,0.571,0.312,1.212,0.312,1.925c0,1.061-0.225,1.95-0.674,2.667c-0.449,0.718-1.088,1.234-1.918,1.55l3.785,3.866H40.181z"
				/>
			<path fill="#FFFFFF" d="M42.116,23.891h2.678l5.704,9.799l5.686-9.799h2.523l-7.241,12.178c-0.127,0.223-0.276,0.397-0.449,0.526
				c-0.173,0.128-0.375,0.191-0.604,0.191c-0.243,0-0.45-0.063-0.623-0.191c-0.172-0.129-0.323-0.303-0.449-0.526L42.116,23.891z"/>
			<path fill="#FFFFFF" d="M60.176,36.612V23.891h2.195v12.721H60.176z"/>
			<path fill="#FFFFFF" d="M66.708,27.304v9.308h-2.091V25.063c0-0.407,0.101-0.731,0.303-0.97c0.202-0.239,0.475-0.359,0.82-0.359
				c0.162,0,0.317,0.035,0.466,0.105c0.15,0.071,0.306,0.187,0.468,0.349l8.865,8.907v-9.309h2.091V35.44
				c0,0.42-0.101,0.747-0.302,0.979c-0.202,0.233-0.464,0.349-0.787,0.349c-0.357,0-0.691-0.157-1.002-0.472L66.708,27.304z"/>
			<path fill="#FFFFFF" d="M85.486,36.612c-0.875,0-1.683-0.166-2.425-0.499c-0.742-0.333-1.387-0.787-1.933-1.364
				c-0.547-0.578-0.973-1.265-1.277-2.056c-0.306-0.794-0.458-1.65-0.458-2.572c0-0.933,0.151-1.785,0.458-2.556
				c0.305-0.77,0.731-1.425,1.278-1.968c0.547-0.543,1.193-0.962,1.937-1.26c0.742-0.297,1.552-0.446,2.427-0.446h6.81v2.222h-6.81
				c-0.564,0-1.086,0.104-1.564,0.307c-0.478,0.205-0.89,0.487-1.235,0.849c-0.346,0.362-0.616,0.793-0.813,1.294
				c-0.196,0.501-0.293,1.057-0.293,1.664c0,0.595,0.097,1.148,0.293,1.661c0.196,0.514,0.466,0.954,0.813,1.321
				c0.345,0.367,0.758,0.656,1.235,0.866c0.478,0.209,1,0.314,1.564,0.314h5.375v-3.306H85.2V29.21h7.863v7.401H85.486z"/>
			<path opacity="0.7" fill="#FFFFFF" enable-background="new    " d="M95.224,36.612V23.891h2.195v12.721H95.224z"/>
			<path opacity="0.7" fill="#FFFFFF" enable-background="new    " d="M101.755,27.304v9.308h-2.091V25.063
				c0-0.407,0.101-0.731,0.302-0.97c0.202-0.239,0.476-0.359,0.821-0.359c0.161,0,0.317,0.035,0.466,0.105
				c0.149,0.071,0.306,0.187,0.468,0.349l8.865,8.907v-9.309h2.091V35.44c0,0.42-0.101,0.747-0.302,0.979
				c-0.202,0.233-0.465,0.349-0.787,0.349c-0.358,0-0.692-0.157-1.002-0.472L101.755,27.304z"/>
			<path opacity="0.7" fill="#FFFFFF" enable-background="new    " d="M118.831,36.612V26.113h-4.77v-2.222h11.734v2.222h-4.77
				v10.499H118.831z"/>
			<path opacity="0.7" fill="#FFFFFF" enable-background="new    " d="M127.247,36.612V23.891h11.233v2.222h-9.038v8.276h9.056
				v2.223H127.247z M131.031,31.083V29.21h6.965v1.873H131.031z"/>
			<path opacity="0.7" fill="#FFFFFF" enable-background="new    " d="M140.364,36.612V23.891h2.194v10.498h8.451v2.223H140.364z"/>
		</g>
	</g>
</g>
</svg>
